<?xml version="1.0" encoding="utf-8"?>
<!-- Generator: Adobe Illustrator 23.0.1, SVG Export Plug-In . SVG Version: 6.00 Build 0)  -->
<svg version="1.0" id="Capa_1" xmlns="http://www.w3.org/2000/svg" xmlns:xlink="http://www.w3.org/1999/xlink" x="0px" y="0px"
	 viewBox="0 0 1068.6 20" style="enable-background:new 0 0 1068.6 20;" xml:space="preserve">
<style type="text/css">
	.st0{fill:#211915;}
	.st1{fill:none;}
</style>
<g>
	<g>
		<path class="st0" d="M1068.6,4.4c-89.1,1.8-178.1,2.8-267.2,3.4c-44.5,0.4-89.1,0.5-133.6,0.7L534.3,8.9L400.7,8.6l-66.8-0.3
			l-33.4-0.2l-33.4-0.3C178.1,7.2,89.1,6.3,0,4.4C89.1,2.6,178.1,1.6,267.2,1l33.4-0.3l33.4-0.2l66.8-0.3L534.3,0l133.6,0.2
			c44.5,0.2,89.1,0.3,133.6,0.7C890.5,1.6,979.6,2.6,1068.6,4.4z"/>
	</g>
	<g>
		<path class="st1" d="M456.6,20"/>
	</g>
</g>
</svg>
